<?xml version="1.0" encoding="UTF-8"?>
<svg version="1.1" xmlns="http://www.w3.org/2000/svg" viewBox="0 0 142 141" width="14" height="14">
<path d="M0 0 C2.44345583 1.11832857 4.10452679 2.66633037 6.09619141 4.4699707 C20.27228067 16.12959442 37.94693235 19.35785663 55.84619141 17.8449707 C68.74252753 16.04823929 81.07769323 10.42087974 90.16259766 1.0324707 C91.84619141 -0.1550293 91.84619141 -0.1550293 93.65356445 -0.00878906 C96.68182721 1.17034855 98.33992606 3.0020464 100.61181641 5.31762695 C101.50126953 6.21674805 102.39072266 7.11586914 103.30712891 8.04223633 C104.68771484 9.46052734 104.68771484 9.46052734 106.09619141 10.9074707 C107.04080813 11.86714044 107.98611336 12.82613299 108.93212891 13.78442383 C111.24368313 16.13135898 113.54795481 18.48500461 115.84619141 20.8449707 C114.09473615 24.49338823 111.92084638 27.57115817 109.53369141 30.8449707 C98.76715028 46.03198234 95.23484224 62.76841649 98.06103516 81.1105957 C100.59440358 93.15985051 106.2670365 106.71720291 115.84619141 114.8449707 C114.3070113 118.51249075 112.09133689 120.83077643 109.27587891 123.6105957 C108.37998047 124.50004883 107.48408203 125.38950195 106.56103516 126.3059082 C105.62388672 127.22629883 104.68673828 128.14668945 103.72119141 129.0949707 C102.76630504 130.03981927 101.81187282 130.98512704 100.85791016 131.9309082 C98.52510054 134.24015409 96.18775054 136.54460273 93.84619141 138.8449707 C93.33032471 138.45390137 92.81445801 138.06283203 92.28295898 137.65991211 C75.83306686 125.24569124 59.8802906 118.09030132 38.84619141 119.8449707 C25.11897268 121.94494238 13.3962279 127.10651506 2.90478516 136.3059082 C0.84619141 137.8449707 0.84619141 137.8449707 -2.15380859 137.8449707 C-4.42211914 135.91723633 -4.42211914 135.91723633 -7.04052734 133.2512207 C-7.50239944 132.78510376 -7.96427155 132.31898682 -8.44013977 131.83874512 C-9.91437812 130.3477078 -11.37784947 128.84658198 -12.84130859 127.3449707 C-13.83866387 126.33257017 -14.83670276 125.3208426 -15.83544922 124.30981445 C-18.28288424 121.82929442 -20.72076746 119.33961981 -23.15380859 116.8449707 C-21.68745488 113.80153539 -20.0808291 111.43385995 -17.90380859 108.8449707 C-7.28258447 95.34716504 -3.29052982 79.4690794 -4.36865234 62.4543457 C-6.28988646 47.3040424 -12.92769174 34.04500345 -23.15380859 22.8449707 C-20.73108987 17.21042374 -16.03556527 13.31756378 -11.77880859 9.0324707 C-10.91513672 8.13592773 -10.05146484 7.23938477 -9.16162109 6.31567383 C-8.32630859 5.47327148 -7.49099609 4.63086914 -6.63037109 3.76293945 C-5.86805176 2.98716553 -5.10573242 2.2113916 -4.3203125 1.41210938 C-2.15380859 -0.1550293 -2.15380859 -0.1550293 0 0 Z M26.84619141 48.8449707 C26.88172119 49.48821289 26.91725098 50.13145508 26.95385742 50.79418945 C27.63634781 63.57350855 28.06539129 76.09026423 26.84619141 88.8449707 C28.76431641 88.5974707 28.76431641 88.5974707 30.72119141 88.3449707 C35.74896474 87.84433893 40.73595891 87.73264549 45.78369141 87.7199707 C46.50991699 87.71545898 47.23614258 87.71094727 47.984375 87.70629883 C54.03687308 87.72240661 59.75261775 88.29100946 65.84619141 88.8449707 C65.84619141 75.6449707 65.84619141 62.4449707 65.84619141 48.8449707 C63.53619141 49.1749707 61.22619141 49.5049707 58.84619141 49.8449707 C56.96346816 49.92982854 55.07848086 49.97546732 53.19384766 49.9777832 C51.65760742 49.9797168 51.65760742 49.9797168 50.09033203 49.98168945 C49.04039063 49.97782227 47.99044922 49.97395508 46.90869141 49.9699707 C45.86261719 49.97383789 44.81654297 49.97770508 43.73876953 49.98168945 C38.01241078 49.97449101 32.50888375 49.70357387 26.84619141 48.8449707 Z " fill="#9B0000" transform="translate(24.15380859375,0.155029296875)"/>
</svg>
